<?xml version="1.0" encoding="UTF-8" standalone="no"?>
<!-- Created with Inkscape (http://www.inkscape.org/) -->

<svg
   width="128"
   height="128"
   viewBox="0 0 128 128"
   version="1.1"
   id="svg1"
   xml:space="preserve"
   inkscape:version="1.3.2 (091e20e, 2023-11-25, custom)"
   sodipodi:docname="evilSwordySword.svg"
   xmlns:inkscape="http://www.inkscape.org/namespaces/inkscape"
   xmlns:sodipodi="http://sodipodi.sourceforge.net/DTD/sodipodi-0.dtd"
   xmlns:xlink="http://www.w3.org/1999/xlink"
   xmlns="http://www.w3.org/2000/svg"
   xmlns:svg="http://www.w3.org/2000/svg"
   xmlns:rdf="http://www.w3.org/1999/02/22-rdf-syntax-ns#"
   xmlns:cc="http://creativecommons.org/ns#"
   xmlns:dc="http://purl.org/dc/elements/1.1/"><sodipodi:namedview
     id="namedview1"
     pagecolor="#ffffff"
     bordercolor="#111111"
     borderopacity="1"
     inkscape:showpageshadow="0"
     inkscape:pageopacity="0"
     inkscape:pagecheckerboard="1"
     inkscape:deskcolor="#d1d1d1"
     inkscape:document-units="mm"
     inkscape:zoom="2.5039063"
     inkscape:cx="75.282371"
     inkscape:cy="120.81123"
     inkscape:window-width="1600"
     inkscape:window-height="837"
     inkscape:window-x="-8"
     inkscape:window-y="-8"
     inkscape:window-maximized="1"
     inkscape:current-layer="layer1" /><defs
     id="defs1"><linearGradient
       inkscape:collect="always"
       xlink:href="#linearGradient9"
       id="linearGradient6"
       x1="0"
       y1="64"
       x2="128"
       y2="64"
       gradientUnits="userSpaceOnUse"
       spreadMethod="pad"
       gradientTransform="translate(159.31398,-1.8326828)" /><linearGradient
       id="linearGradient9"
       inkscape:collect="always"><stop
         style="stop-color:#e44444;stop-opacity:1;"
         offset="0"
         id="stop7" /><stop
         style="stop-color:#a61818;stop-opacity:1;"
         offset="1"
         id="stop8" /></linearGradient></defs><g
     inkscape:label="Layer 1"
     inkscape:groupmode="layer"
     id="layer1"><rect
       style="fill:#aa1b1b;fill-opacity:1;stroke:#7a1313;stroke-width:2.5;stroke-dasharray:none;stroke-opacity:1"
       id="rect3"
       width="10.076272"
       height="21.566757"
       x="58.961864"
       y="91.810806" /><path
       id="path3"
       style="fill:#5f5f5f;stroke:#434343;stroke-width:2.5;stroke-dasharray:none;stroke-opacity:1;fill-opacity:1"
       inkscape:transform-center-x="-0.04340086"
       inkscape:transform-center-y="-1.2768616"
       d="M 71.025269,87 57.15598,87.09497 53.543747,24.129612 63.944485,3.549478 74.456864,23.975953 Z"
       sodipodi:nodetypes="cccccc" /><path
       id="path3-9"
       style="fill:#6e6e6e;stroke:#5f5f5f;stroke-width:2.5;stroke-dasharray:none;stroke-opacity:1;fill-opacity:1"
       inkscape:transform-center-x="-0.024517007"
       inkscape:transform-center-y="-0.8918018"
       d="m 66.968298,82.091686 -5.835,0.0664 -3.040214,-55.979095 5.875458,-14.374502 5.938524,14.267176 z"
       sodipodi:nodetypes="cccccc" /><g
       id="g7"
       transform="matrix(0.49615454,0,0,0.4909599,30.558905,65.373702)"
       style="fill:#7e7e7e;fill-opacity:1;stroke:#7a1313;stroke-opacity:1"><path
         d="m 67.399584,18.611328 -1.441406,2.4375 -10.853515,18.353516 c 0,0 -12.051783,0.793104 -17.513672,-1.3125 -1.552518,-0.598509 -4.481262,-1.491249 -3.939453,-3.064453 l 1.371093,-3.978516 c 1.100782,-3.19625 -1.630382,-1.888761 -3.998047,-0.400391 -1.795716,1.128831 -3.438124,2.821328 -4.158203,4.816407 -1.263586,3.500945 -1.259838,7.748356 0.21875,11.164062 1.70133,3.930261 5.434233,6.922674 9.19336,8.974609 5.717343,3.120838 19.044922,4.378907 19.044922,4.378907 l 10.634765,10.501953 1.44336,1.423828 1.441406,-1.421875 10.634765,-10.501953 c 10e-7,0 13.327568,-1.258063 19.044922,-4.378906 3.759139,-2.05194 7.492029,-5.044341 9.193359,-8.97461 1.4786,-3.415713 1.48234,-7.66311 0.21875,-11.164062 -0.72007,-1.995083 -2.36248,-3.687574 -4.1582,-4.816407 -2.36767,-1.488373 -5.09688,-2.795865 -3.996096,0.400391 l 1.369136,3.978516 c 0.54181,1.573207 -2.386927,2.465943 -3.939449,3.064453 -5.4619,2.105609 -17.513672,1.3125 -17.513672,1.3125 L 68.842944,21.052734 Z"
         style="fill:#aa1b1b;fill-opacity:1;stroke:#7a1313;stroke-width:5;stroke-opacity:1"
         id="path6" /><path
         id="rect7"
         style="fill:#e04141;fill-opacity:1;stroke:none;stroke-width:1;stroke-dasharray:none;stroke-opacity:1"
         d="M 67.400565,31.146556 78.090682,49.836674 67.400564,60.526793 56.710446,49.836675 Z"
         sodipodi:nodetypes="ccccc" /></g><path
       sodipodi:type="star"
       style="fill:#aa1b1b;fill-opacity:1;stroke:#7a1313;stroke-width:2.5;stroke-dasharray:none;stroke-opacity:1"
       id="path4"
       inkscape:flatsided="true"
       sodipodi:sides="6"
       sodipodi:cx="62.25"
       sodipodi:cy="123.75"
       sodipodi:r1="8.2329369"
       sodipodi:r2="5.7740664"
       sodipodi:arg1="0.52479577"
       sodipodi:arg2="1.0483946"
       inkscape:rounded="-3.469447e-18"
       inkscape:randomized="0"
       d="m 69.375,127.875 -7.134855,4.10793 -7.125,-4.125 0.0099,-8.23293 7.134855,-4.10793 7.125,4.125 z"
       transform="translate(1.75,-5.25)" /><path
       sodipodi:type="star"
       style="fill:#e04141;fill-opacity:1;stroke:none;stroke-width:2.5;stroke-dasharray:none;stroke-opacity:1"
       id="path4-5"
       inkscape:flatsided="true"
       sodipodi:sides="6"
       sodipodi:cx="62.25"
       sodipodi:cy="123.75"
       sodipodi:r1="8.2329369"
       sodipodi:r2="5.7740664"
       sodipodi:arg1="0.52479577"
       sodipodi:arg2="1.0483946"
       inkscape:rounded="-3.469447e-18"
       inkscape:randomized="0"
       d="m 69.375,127.875 -7.134855,4.10793 -7.125,-4.125 0.0099,-8.23293 7.134855,-4.10793 7.125,4.125 z"
       transform="matrix(0.50666389,0,0,0.46605413,32.460173,60.825801)" /><circle
       style="fill:url(#linearGradient6);stroke:#7a1313;stroke-width:7.5;stroke-dasharray:none;stroke-opacity:1"
       id="path1"
       cx="223.31396"
       cy="62.167316"
       r="61.5" /><g
       id="g13"
       transform="translate(157.13274,-1.8326828)"><circle
         style="fill:#000000;stroke:none;stroke-opacity:1"
         id="path11"
         cx="40.181217"
         cy="52.181217"
         r="17.181217" /><ellipse
         style="fill:#ffffff;fill-opacity:1;stroke:none;stroke-width:1.49854;stroke-opacity:1"
         id="path12"
         cx="35.092537"
         cy="47.535866"
         rx="8.0603313"
         ry="8.0603542" /><ellipse
         style="fill:#ffffff;fill-opacity:1;stroke:none;stroke-width:0.633731;stroke-opacity:1"
         id="path12-3"
         cx="44.368668"
         cy="56.741871"
         rx="3.4087074"
         ry="3.4087172" /></g><g
       id="g14"
       transform="translate(165.17159,-1.8326828)"><circle
         style="fill:#000000;stroke:none;stroke-opacity:1"
         id="path11-8"
         cx="84.142372"
         cy="52.466358"
         r="17.181217" /><ellipse
         style="fill:#ffffff;fill-opacity:1;stroke:none;stroke-width:1.49854;stroke-opacity:1"
         id="path12-4"
         cx="79.053688"
         cy="47.821007"
         rx="8.0603313"
         ry="8.0603542" /><ellipse
         style="fill:#ffffff;fill-opacity:1;stroke:none;stroke-width:0.633731;stroke-opacity:1"
         id="path12-3-6"
         cx="88.329819"
         cy="57.027012"
         rx="3.4087074"
         ry="3.4087172" /></g></g><metadata
     id="metadata7"><rdf:RDF><cc:Work
         rdf:about=""><dc:date>2024</dc:date><dc:contributor><cc:Agent><dc:title>Erts57</dc:title></cc:Agent></dc:contributor><dc:creator><cc:Agent><dc:title>SemajLu</dc:title></cc:Agent></dc:creator><dc:language>US-EN</dc:language><dc:subject><rdf:Bag><rdf:li>BLOOPS</rdf:li></rdf:Bag></dc:subject><dc:rights><cc:Agent><dc:title>All Rights Reserved</dc:title></cc:Agent></dc:rights></cc:Work></rdf:RDF></metadata></svg>
